<?xml version="1.0" encoding="UTF-8"?>
<svg xmlns="http://www.w3.org/2000/svg" xmlns:xlink="http://www.w3.org/1999/xlink" width="128pt" height="128pt" viewBox="0 0 128 128" version="1.1">
<g id="surface978074">
<path style=" stroke:none;fill-rule:nonzero;fill:rgb(40%,40%,40%);fill-opacity:1;" d="M 108.898438 108.898438 C 106.601562 111.199219 102.800781 111.199219 100.398438 108.898438 L 87.699219 96.199219 C 85.398438 93.898438 85.398438 90.101562 87.699219 87.699219 C 90 85.398438 93.800781 85.398438 96.199219 87.699219 L 108.898438 100.398438 C 111.199219 102.800781 111.199219 106.601562 108.898438 108.898438 Z M 108.898438 108.898438 "/>
<path style=" stroke:none;fill-rule:nonzero;fill:rgb(40%,40%,40%);fill-opacity:1;" d="M 27.535156 27.589844 C 13.867188 41.257812 13.867188 63.417969 27.535156 77.085938 C 41.203125 90.753906 63.363281 90.753906 77.03125 77.085938 C 90.703125 63.417969 90.699219 41.257812 77.03125 27.589844 C 63.363281 13.921875 41.203125 13.921875 27.535156 27.589844 Z M 27.535156 27.589844 "/>
<path style=" stroke:none;fill-rule:nonzero;fill:rgb(40%,40%,40%);fill-opacity:1;" d="M 27.535156 27.589844 C 13.867188 41.257812 13.867188 63.417969 27.535156 77.085938 C 41.203125 90.753906 63.363281 90.753906 77.03125 77.085938 C 90.703125 63.417969 90.699219 41.257812 77.03125 27.589844 C 63.363281 13.921875 41.203125 13.921875 27.535156 27.589844 Z M 27.535156 27.589844 "/>
<path style=" stroke:none;fill-rule:nonzero;fill:rgb(52.54902%,87.058824%,0%);fill-opacity:1;" d="M 52.300781 84.300781 C 50.601562 84.300781 49.300781 83 49.300781 81.300781 C 49.300781 79.601562 50.601562 78.300781 52.300781 78.300781 C 59.199219 78.300781 65.800781 75.601562 70.699219 70.699219 C 77.101562 64.300781 79.699219 55.199219 77.601562 46.300781 C 77.199219 44.699219 78.199219 43.101562 79.800781 42.699219 C 81.398438 42.300781 83 43.300781 83.398438 44.898438 C 86 55.800781 82.898438 67.101562 75 75 C 68.898438 81 60.898438 84.300781 52.300781 84.300781 Z M 72.898438 35 C 72.101562 35 71.398438 34.699219 70.800781 34.101562 L 70.800781 34 C 69.601562 32.800781 69.601562 30.898438 70.800781 29.699219 C 72 28.5 73.800781 28.5 75 29.699219 L 75.101562 29.800781 C 76.300781 31 76.300781 32.898438 75.101562 34.101562 C 74.5 34.699219 73.699219 35 72.898438 35 Z M 72.898438 35 "/>
<path style=" stroke:none;fill-rule:nonzero;fill:rgb(53.333333%,49.019608%,49.019608%);fill-opacity:1;" d="M 52.300781 90.300781 C 42.601562 90.300781 32.800781 86.601562 25.398438 79.199219 C 10.601562 64.398438 10.601562 40.300781 25.398438 25.5 C 40.199219 10.699219 64.300781 10.699219 79.101562 25.5 C 94 40.300781 94 64.398438 79.199219 79.199219 C 71.800781 86.601562 62.101562 90.300781 52.300781 90.300781 Z M 52.300781 20.398438 C 44.101562 20.398438 35.898438 23.5 29.699219 29.800781 C 17.199219 42.300781 17.199219 62.601562 29.699219 75.101562 C 42.199219 87.398438 62.5 87.398438 75 75 C 87.5 62.5 87.5 42.199219 75 29.699219 C 68.699219 23.5 60.5 20.398438 52.300781 20.398438 Z M 111 98.300781 L 98.300781 85.601562 C 96.601562 83.898438 94.300781 83 91.898438 83 C 90.5 83 89.199219 83.300781 88 83.898438 L 85.5 81.398438 C 84.300781 80.199219 82.398438 80.199219 81.300781 81.398438 C 80.101562 82.601562 80.101562 84.5 81.300781 85.601562 L 83.800781 88.101562 C 82.199219 91.398438 82.800781 95.601562 85.5 98.300781 L 98.300781 111 C 100.101562 112.800781 102.398438 113.601562 104.699219 113.601562 C 107 113.601562 109.300781 112.699219 111.101562 111 C 112.800781 109.300781 113.699219 107 113.699219 104.601562 C 113.699219 102.300781 112.699219 100 111 98.300781 Z M 106.800781 106.800781 C 105.601562 108 103.699219 108 102.601562 106.800781 L 89.800781 94.101562 C 88.601562 92.898438 88.601562 91 89.800781 89.898438 C 90.398438 89.300781 91.101562 89 91.898438 89 C 92.699219 89 93.5 89.300781 94 89.898438 L 106.699219 102.601562 C 107.300781 103.199219 107.601562 103.898438 107.601562 104.699219 C 107.601562 105.5 107.398438 106.199219 106.800781 106.800781 Z M 106.800781 106.800781 "/>
</g>
</svg>
